<svg width="82" height="47" viewBox="0 0 82 47" fill="none" xmlns="http://www.w3.org/2000/svg">
<path d="M0.2 47V0.919998H22.088C25.5013 0.919998 28.424 1.51733 30.856 2.712C33.3307 3.90666 35.2293 5.57066 36.552 7.704C37.9173 9.83733 38.6 12.3333 38.6 15.192C38.6 18.0507 37.9173 20.568 36.552 22.744C35.1867 24.92 33.2667 26.6267 30.792 27.864C28.36 29.0587 25.4587 29.656 22.088 29.656H8.008V22.104H21.576C23.8373 22.104 25.5867 21.4853 26.824 20.248C28.104 18.968 28.744 17.304 28.744 15.256C28.744 13.208 28.104 11.5653 26.824 10.328C25.5867 9.09066 23.8373 8.472 21.576 8.472H10.056V47H0.2ZM56.201 47V8.472H41.161V0.919998H81.097V8.472H66.057V47H56.201Z" fill="#539CBE"/>
</svg>
